<?xml version="1.0" encoding="utf-8"?>
<!-- Generator: Adobe Illustrator 17.1.0, SVG Export Plug-In . SVG Version: 6.00 Build 0)  -->
<!DOCTYPE svg PUBLIC "-//W3C//DTD SVG 1.1//EN" "http://www.w3.org/Graphics/SVG/1.1/DTD/svg11.dtd">
<svg version="1.1" id="Layer_1" xmlns="http://www.w3.org/2000/svg" xmlns:xlink="http://www.w3.org/1999/xlink" x="0px" y="0px"
	 viewBox="0 0 410.7 426.8" enable-background="new 0 0 410.7 426.8" xml:space="preserve">
<g>
	<path fill="#FFFFFF" d="M212.6,101.7c0.5,1.6,0.5,4,0,7.2c-0.5,3.2-1.4,6.9-2.7,11.1c-1.2,4.2-2.8,8.8-4.8,13.8
		c-1.9,5-4,10.1-6.3,15.4c-2.3,5.3-4.6,10.5-7,15.7c-2.4,5.2-4.8,10-7,14.5c5.1-6,9.7-11.8,13.8-17.4c4-5.6,7.7-10.9,11.1-16.1
		c3.3-5.2,6.3-10.1,9.1-15c2.7-4.8,5.3-9.6,7.7-14.4c1.2-6,2.1-10.9,2.7-14.5c0.6-3.6,1.4-5.9,2.5-6.8c0.4-0.4,1.6-0.9,3.4-1.4
		c1.8-0.6,3.8-1,5.8-1.3c2-0.3,3.9-0.5,5.5-0.4c1.7,0.1,2.6,0.5,3,1.3c0.5,1.6,0.6,4,0.1,7.3c-0.5,3.3-1.3,7.2-2.5,11.7
		c-1.2,4.5-2.7,9.4-4.6,14.7c-1.8,5.3-3.8,10.7-6,16.3c-2.2,5.6-4.4,11.1-6.7,16.5c-2.3,5.4-4.5,10.5-6.7,15.3
		c6.5-8.4,11.9-16,16.1-22.8c4.2-6.8,7.8-13.4,10.8-19.8c3-6.4,5.7-12.9,8.1-19.4c2.4-6.5,5.1-13.8,8-21.8c0.4-1.1,1.5-2,3.4-2.8
		c1.9-0.7,3.9-1.3,5.9-1.6c2-0.3,3.8-0.3,5.4,0c1.6,0.4,2.2,1.1,2,2.2c-1.1,4.6-3.6,10.5-7.3,17.7c-3.7,7.2-8,14.8-13,22.9
		c-5,8-10.2,16.1-15.8,24.2c-5.6,8.1-10.9,15.5-16,22c-5.1,6.6-9.5,12-13.3,16.3c-3.8,4.3-6.4,6.6-7.8,7c-0.7,0.2-1.9,0.1-3.5-0.4
		c-1.6-0.5-3.3-1.1-4.9-2c-1.6-0.9-2.9-1.9-3.9-2.9c-0.9-1.1-1.1-2.1-0.5-3.1c5.7-9.3,10.4-18,14-26.2c3.6-8.2,6.6-15.8,8.9-22.8
		c-4.5,7.1-9.4,14.3-14.6,21.5c-5.2,7.2-10.2,13.7-15,19.5c-4.8,5.8-8.9,10.7-12.5,14.6c-3.5,3.9-5.9,5.9-7,6.2
		c-0.7,0.2-1.9,0.1-3.5-0.4c-1.6-0.5-3.3-1.1-4.8-1.9c-1.6-0.8-2.9-1.8-3.9-2.8c-1-1.1-1.2-2.2-0.6-3.3c2.9-5.5,5.9-11.4,8.9-17.7
		c3-6.3,5.9-12.5,8.6-18.7c2.7-6.2,5.1-12.2,7.4-18c2.3-5.8,4.2-11,5.7-15.5c1.6-4.5,2.7-8.2,3.3-11.1c0.6-2.8,0.7-4.5,0.2-4.9
		c-0.1-0.1-0.6,0-1.3,0.3c-0.7,0.3-1.5,0.6-2.2,0.9c-0.7,0.3-1.3,0.3-1.7,0.2c-0.4-0.1-0.4-0.8,0.1-1.9c0.6-1.2,1.2-2.6,2-4
		c0.8-1.4,1.6-2.7,2.6-3.9c0.9-1.2,1.9-2.2,2.9-3c1-0.8,1.9-1.2,2.9-1.2c1.1,0,2.4,0.1,4.1,0.4c1.7,0.3,3.3,0.6,4.9,1.1
		c1.6,0.4,3,1,4.3,1.7C211.5,100.1,212.3,100.9,212.6,101.7z"/>
	<path fill="#FFFFFF" d="M305.5,118.5c0.8-0.1,1.9,0,3.3,0.4c1.4,0.4,2.8,0.8,4.1,1.4c1.3,0.6,2.3,1.2,3.1,2
		c0.7,0.7,0.8,1.5,0.3,2.3c-0.7,1-1.9,2.9-3.6,5.5c-1.7,2.7-3.5,5.7-5.4,9.2c-2,3.5-4,7.1-6.1,11c-2.1,3.9-4,7.5-5.6,10.8
		c-1.6,3.3-2.9,6.1-3.7,8.5c-0.8,2.3-1,3.7-0.4,4.1c0.1,0.1,0.6-0.1,1.4-0.5c0.8-0.4,1.6-0.8,2.4-1.1c0.8-0.3,1.4-0.4,1.8-0.4
		c0.4,0.1,0.3,0.7-0.4,1.8c-0.9,1.4-1.9,2.9-3,4.5c-1.1,1.6-2.3,3.1-3.6,4.4c-1.3,1.3-2.5,2.4-3.7,3.3c-1.2,0.9-2.3,1.4-3.2,1.5
		c-1,0.1-2.2-0.1-3.3-0.5c-1.2-0.5-2.3-1-3.4-1.8c-1.1-0.7-2-1.5-2.7-2.4c-0.7-0.9-1.1-1.8-1.2-2.6c-0.1-1.2,0.1-2.7,0.5-4.7
		c0.5-1.9,1.3-4.2,2.3-6.6c-2.1,2.8-4.1,5.5-6.1,8.1c-2,2.6-3.8,4.8-5.4,6.8c-1.6,2-3,3.5-4.3,4.7c-1.2,1.2-2.1,1.8-2.5,1.9
		c-1.1,0.1-2.2-0.1-3.3-0.5c-1.2-0.5-2.3-1-3.4-1.8c-1.1-0.7-2-1.5-2.7-2.4c-0.7-0.9-1.1-1.8-1.2-2.6c-0.2-1.6,0.2-4.2,1.3-7.8
		c1-3.6,2.5-7.7,4.5-12.2c2-4.5,4.3-9.3,7.1-14.3c2.8-5,5.8-9.6,9-14c3.2-4.4,6.6-8.2,10.2-11.5c3.6-3.3,7.2-5.5,10.9-6.6
		c0.9-0.3,1.9-0.4,3-0.1c1.1,0.3,2.2,0.7,3.2,1.3c1.1,0.6,2.1,1.3,3.2,2c1.1,0.8,2,1.5,2.8,2.1C303.3,119.7,304.6,118.6,305.5,118.5
		z M263.9,176.2c0.1,0.1,0.8-0.5,1.9-1.8c1.2-1.3,2.6-3.1,4.4-5.4c1.8-2.3,3.7-4.8,5.9-7.6c2.2-2.8,4.3-5.7,6.5-8.7
		c2.7-5.4,5.6-10.6,8.6-15.6c3-5,5.8-9.2,8.3-12.5c-2.1,0-4.6,1.2-7.3,3.7c-2.7,2.5-5.5,5.6-8.4,9.3c-2.8,3.7-5.6,7.7-8.2,12
		c-2.6,4.3-4.9,8.4-6.8,12.2c-1.9,3.8-3.4,7.1-4.3,9.8C263.6,174.3,263.4,175.8,263.9,176.2z"/>
	<path fill="#FFFFFF" d="M308.9,182.4c-0.2,0.3-0.4,0.6-0.6,1.1c-0.4,1-1.1,1.3-2.3,1c-1.2-0.3-2.4-0.9-3.7-1.9
		c-1.3-1-2.4-2.1-3.5-3.3c-1-1.2-1.6-2.3-1.7-3.1c-0.2-1.7,0.4-4.5,1.8-8.3c1.4-3.8,3.3-8,5.5-12.7c2.3-4.7,4.8-9.5,7.5-14.5
		c2.8-5,5.5-9.5,8.1-13.7c2.7-4.1,5.1-7.5,7.2-10.2c2.1-2.7,3.7-4,4.6-4.1c0.8-0.1,2,0.1,3.4,0.4c1.5,0.4,2.9,0.9,4.2,1.5
		c1.4,0.6,2.4,1.3,3.2,2c0.8,0.7,0.9,1.4,0.2,2.1c-1.1,1.4-2.8,3.7-5.1,6.7c-2.3,3-4.8,6.7-7.6,11c-2.8,4.3-5.8,9.2-9,14.5
		c-3.2,5.4-6.2,11.1-9.1,17.2c3.6-6.3,7.6-12.9,12.2-19.7c4.6-6.8,9-13.1,13.4-18.8s8.4-10.4,12-14.1c3.6-3.7,6.1-5.6,7.5-5.8l0.2,0
		c0.8-0.1,1.9,0.1,3.3,0.4c1.4,0.4,2.7,0.9,4,1.5c1.2,0.6,2.2,1.3,3,2.1c0.7,0.7,0.8,1.4,0.3,2.1c-0.6,0.9-1.8,2.8-3.5,5.6
		c-1.8,2.9-3.7,6.1-5.9,9.9c-2.2,3.7-4.4,7.6-6.8,11.7c-2.3,4.1-4.4,7.9-6.1,11.5c-1.7,3.6-3.1,6.6-4,9c-1,2.5-1.2,3.9-0.7,4.3
		c0.1,0.1,0.6-0.1,1.4-0.5c0.8-0.4,1.6-0.8,2.4-1.1c0.8-0.3,1.4-0.4,1.8-0.4c0.4,0.1,0.3,0.7-0.4,1.8c-0.9,1.4-1.9,2.9-3,4.5
		c-1.1,1.6-2.3,3.1-3.6,4.4c-1.3,1.3-2.5,2.4-3.7,3.3c-1.2,0.9-2.3,1.4-3.2,1.5c-1,0.1-2.2-0.1-3.3-0.5c-1.2-0.5-2.3-1-3.4-1.8
		c-1.1-0.7-2-1.5-2.7-2.4c-0.7-0.9-1.1-1.8-1.2-2.6c-0.2-1.5,0.3-3.8,1.4-7c1.1-3.1,2.5-6.7,4.3-10.6c1.8-3.9,3.9-8.1,6.2-12.5
		c2.3-4.4,4.7-8.6,7.1-12.7c-2.8,3.5-5.8,7.4-8.9,11.8c-3.1,4.4-6.1,8.9-9,13.5c-2.9,4.6-5.6,9.2-8.2,13.6
		C312.6,175,310.5,178.9,308.9,182.4z"/>
</g>
<g>
	<g>
		<g>
			<path fill="#AF2741" d="M101.8,311.7c20.4-11.7,42.1-59-22.5-92.2c-50.7-26.7-123.6,62.9-44.3,111.7
				c75.8,46.7,128.2-10.1,133.1-54.6c2.9-26.8-4.8-68.1-34.5-105.7c-29.7-37.6-46-71.8-21.5-108.1c4.5-7.3,13.3-8.8,16.7,3.1
				c3.4,11.9,8.6,31.5-4.9,68.1c-13.5,36.7-90.1,202-93.6,210.2c-3.4,8.2-22.2,50.6,9.2,71.2c31.7,20.9,54.9,11.3,59.9-12.7
				c5-24-28.4-35.8-41.7-17.3C44.5,404,56,410.7,56,410.7s3.1,1.9-4.2-2.6c-15.7-9.8-23.9-29.2,4-91.7
				c37.5-83.8,75.3-163.1,81.6-177c6.3-13.9,34.9-105.6,1.5-121.6C105.5,1.9,75.1,95.2,82.3,132.1c7.2,36.9,32.9,72.8,50.7,98.9
				c17.8,26.1,23.5,89.9-28.5,100.2c-52,10.3-72.3-26.4-75.3-39.3c-3.8-16.3,1.8-46.2,38.4-45c36.7,1.2,43.3,45.1,26.1,56.2
				C78.9,312.6,88.3,319.5,101.8,311.7z"/>
		</g>
		<g>
			<path fill-rule="evenodd" clip-rule="evenodd" fill="#AF2741" d="M47.6,86.5l2.7-0.8c0,0,5,2.8,12.9,7
				c7.9,4.2,12.4,12.8,7.4,22.7c-2.3,4.5-0.1-5.3-0.8-7.9c-0.7-2.6-9.3-13-15.5-11.2c0,0,6.4,23,7.5,26.9c1.1,3.9-1.6,9.3-7.9,11.1
				c-6.2,1.7-11.5-1.8-11.3-8.9c0.1-5.2,9.4-9.4,14.3-5.8L47.6,86.5z"/>
		</g>
		<g>
			<path fill-rule="evenodd" clip-rule="evenodd" fill="#AF2741" d="M154.1,0l6.6,24c2-4.7,10.5-5.7,12.8-2.1
				c3.2,5,0.9,9.8-4.3,11.3c-5.2,1.4-9.5-1.2-10.4-4.5L151,0.9L154.1,0z"/>
		</g>
	</g>
	<g>
		<g>
			<g>
				<path fill="#AF2741" d="M407.8,238.2c0,0.8,0.3,1.6,1,2.5c0.6,0.9,1.2,1.8,1.5,2.9c0.4,1,0.5,2.1,0.3,3.4
					c-0.2,1.2-1.1,2.6-2.8,4.3c-0.4,0.6-0.9,1-1.4,1.2c-0.6,0.1-1,0.5-1.2,1.1c-0.4,1.2-0.6,2.6-0.6,4.2c-0.8-0.8-1.9-1.6-3.3-2.4
					c-1.4-0.8-2.8-1.6-4.1-2.4c-1.3-0.8-2.5-1.6-3.5-2.4c-1-0.8-1.3-1.7-1.1-2.6c0.3-0.8,0.3-1.5,0.2-2.2c-0.1-0.7-0.1-1.4,0.2-2
					c1.2-2.3,2.5-4.2,4-5.7c1.5-1.5,2.9-2.5,4.2-3.2c0.9,0,1.6,0.1,2.1,0.4c0.5,0.3,1.1,0.5,1.7,0.8c0.6,0.3,1.2,0.5,1.8,0.7
					C407.5,237,407.8,237.5,407.8,238.2z"/>
			</g>
		</g>
		<g>
			<path fill="#AF2741" d="M238.7,200.1c0.9-0.2,2.3-0.1,3.9,0.2c1.7,0.3,3.3,0.8,4.9,1.3c1.6,0.5,2.8,1.2,3.7,2
				c0.9,0.8,1.1,1.7,0.6,2.6c-0.7,1.3-2,3.5-3.7,6.8c-1.7,3.3-3.6,7-5.6,11.2c-2,4.2-4.1,8.7-6.2,13.4c-2.1,4.7-4,9.1-5.7,13.1
				c-1.6,4-2.8,7.4-3.6,10.2c-0.7,2.8-0.8,4.4-0.1,4.9c0.2,0.1,0.7-0.1,1.6-0.7c0.9-0.6,1.8-1.1,2.7-1.5c0.9-0.4,1.6-0.6,2.1-0.6
				c0.5,0,0.4,0.8-0.3,2.2c-0.9,1.7-2,3.6-3.2,5.5c-1.2,2-2.5,3.8-3.8,5.4c-1.4,1.7-2.7,3.1-4.1,4.2c-1.3,1.2-2.5,1.8-3.6,2
				c-1.2,0.2-2.5,0.1-3.9-0.3c-1.4-0.4-2.8-1-4.1-1.8c-1.3-0.7-2.4-1.6-3.3-2.6c-0.9-1-1.4-2-1.6-3c-0.2-1.3-0.2-3.2,0.2-5.5
				c0.4-2.3,1.1-5,2.1-8c-2.2,3.5-4.3,6.8-6.5,10c-2.1,3.2-4.1,6-5.8,8.4c-1.7,2.4-3.3,4.4-4.6,5.9c-1.3,1.5-2.3,2.3-2.8,2.4
				c-1.2,0.2-2.5,0.1-3.9-0.3c-1.4-0.4-2.8-1-4.1-1.8c-1.3-0.7-2.4-1.6-3.3-2.6c-0.9-1-1.4-2-1.6-3c-0.3-1.9-0.1-5,0.8-9.3
				c0.9-4.3,2.3-9.2,4.2-14.6c1.9-5.5,4.3-11.2,7.1-17.3c2.8-6,5.9-11.8,9.3-17.2c3.4-5.4,7.1-10.2,11-14.3c3.9-4.2,8-7,12.2-8.7
				c1-0.5,2.2-0.6,3.5-0.3c1.3,0.2,2.6,0.7,3.9,1.3c1.3,0.6,2.6,1.3,4,2.1c1.3,0.8,2.5,1.5,3.5,2.2
				C236.2,201.7,237.6,200.3,238.7,200.1z M194.9,271.2c0.2,0.1,0.9-0.6,2.1-2.3c1.2-1.6,2.8-3.8,4.7-6.6c1.9-2.8,3.9-6,6.2-9.5
				c2.3-3.5,4.6-7.1,6.8-10.7c2.7-6.5,5.6-12.8,8.8-19c3.1-6.1,6-11.2,8.6-15.4c-2.5,0.2-5.2,1.8-8.2,5c-3,3.1-6,7-9,11.5
				c-3,4.5-5.9,9.4-8.5,14.7c-2.7,5.3-5,10.2-6.9,14.8c-1.9,4.6-3.4,8.6-4.2,11.8C194.3,268.9,194.2,270.8,194.9,271.2z"/>
		</g>
		<g>
			<path fill="#AF2741" d="M306.5,190.7c1.9-1.1,4.4-1.5,7.4-1.5c3,0.1,5.9,0.5,8.8,1.3c2.8,0.8,5.3,1.9,7.3,3.4
				c2.1,1.4,3.2,3,3.4,4.6c0.2,2.1-0.3,5.3-1.8,9.8c-1.4,4.5-3.4,9.1-5.9,14c-2.5,4.9-5.4,9.4-8.5,13.7c-3.1,4.2-6.3,7.1-9.6,8.5
				c-2.1,0.9-4.4,1-7,0.1c-2.6-0.8-5-1.8-7.2-3c-2.2,7.1-3.3,13-3.2,17.7c0,4.7,1.8,6.8,5.4,6.5c1.1-0.2,2.5-0.8,4.2-1.9
				c1.7-1.1,3.6-2.5,5.6-4.2c2.1-1.7,4.3-3.7,6.6-5.9c2.3-2.2,4.6-4.6,7-7c1.5-1.7,2.5-2.4,3.1-2c0.6,0.3,0.3,1.4-0.8,3.3
				c-1.7,3-3.6,5.9-5.8,8.7c-2.2,2.9-4.5,5.5-6.8,7.9c-2.4,2.4-4.7,4.4-7.1,6.1c-2.4,1.7-4.4,2.8-6.1,3.2c-1.2,0.4-2.8,0.5-5,0.5
				c-2.1,0-4.2-0.3-6.2-0.8c-2.1-0.5-3.9-1.3-5.7-2.2c-1.7-0.9-2.9-2.1-3.6-3.5c-1.6-3.6-2.4-7.8-2.3-12.5c0.1-4.7,0.8-9.6,2-14.7
				c1.2-5.1,3-10.2,5.4-15.4c2.3-5.2,4.9-10.1,7.8-14.6c2.9-4.5,5.9-8.5,9.1-12.1C300.2,195.2,303.3,192.5,306.5,190.7z M295,237.8
				c1.6-0.4,3.6-1.9,6-4.4c2.4-2.5,4.9-5.5,7.5-9.1c2.6-3.5,5-7.4,7.3-11.5c2.3-4.1,4.1-8,5.4-11.6c0.5-1.6,0.7-2.6,0.5-2.8
				c-0.2-0.2-1.1,0.3-2.6,1.7c-2,2.1-4.2,4.6-6.6,7.6c-2.4,3-4.7,6.3-6.9,9.8c-2.2,3.5-4.3,7-6.2,10.5
				C297.6,231.5,296.1,234.8,295,237.8z"/>
			<path fill="#AF2741" d="M336.6,263.7c-0.9,1.9-1.7,2.8-2.2,2.9c-1.2,0.2-2.6,0.1-4.2-0.3c-1.5-0.4-2.9-1-4.2-1.8
				c-1.3-0.7-2.4-1.6-3.3-2.6c-1-1-1.5-2-1.5-3c-0.1-3.3,1-8.3,3.1-15c2.1-6.6,4.9-14,8.4-22.2c3.5-8.2,7.4-16.8,11.7-25.8
				c4.4-9,8.7-17.6,13.1-25.8c4.4-8.2,8.4-15.7,12.2-22.4c3.8-6.7,6.9-11.9,9.3-15.4c0.7-1,2-1.5,4-1.5c2,0,4,0.3,6,1
				c2,0.7,3.6,1.7,4.8,2.9c1.3,1.2,1.5,2.6,0.6,4c-3.8,6.9-8.1,14.6-12.8,23.2c-4.8,8.6-9.5,17.3-14.2,26.2
				c-4.7,8.8-9,17.5-13.1,25.8c-4.1,8.4-7.3,15.8-9.7,22.3c3.7-7.1,7.8-14.3,12.1-21.5c4.3-7.2,8.5-13.6,12.6-19.4
				c4-5.8,7.7-10.5,10.9-14.2c3.2-3.7,5.6-5.7,7.1-5.9c0.9-0.2,2.3-0.1,3.9,0.2c1.7,0.3,3.3,0.8,4.9,1.3c1.6,0.5,2.8,1.2,3.7,2
				c0.9,0.8,1.1,1.7,0.6,2.6c-0.8,1.1-2.1,3.4-3.9,6.9c-1.8,3.5-3.8,7.5-6,12c-2.2,4.5-4.4,9.3-6.8,14.3c-2.4,5-4.5,9.7-6.2,14
				c-1.8,4.3-3.1,8-4.1,10.9c-0.9,3-1.1,4.7-0.4,5.1c0.2,0.1,0.7-0.1,1.7-0.7c0.9-0.6,1.9-1.1,2.8-1.6c0.9-0.4,1.6-0.6,2-0.6
				c0.4,0.1,0.3,0.8-0.4,2.2c-0.8,1.7-1.8,3.5-3.1,5.5c-1.2,2-2.5,3.8-3.8,5.4c-1.3,1.6-2.6,3-3.9,4.2c-1.3,1.2-2.5,1.8-3.6,2
				c-1.2,0.2-2.6,0.1-4-0.3c-1.5-0.4-2.9-1-4.1-1.8c-1.3-0.7-2.3-1.6-3.2-2.7c-0.9-1-1.4-2-1.6-3c-0.3-1.8,0-4.5,1-8.4
				c1-3.8,2.4-8.1,4.2-13c1.8-4.8,3.9-9.9,6.3-15.3c2.4-5.4,4.8-10.6,7.4-15.6c-3,4.3-6.1,9.2-9.4,14.7c-3.3,5.4-6.4,11-9.5,16.7
				c-3.1,5.7-5.9,11.3-8.6,16.8c-2.6,5.5-4.8,10.4-6.5,14.6L336.6,263.7z"/>
		</g>
		<g>
			<path fill="#AF2741" d="M268.8,195.5c0.8-0.4,2.1-0.6,4.1-0.7c2-0.1,3.9,0.1,5.8,0.6c1.9,0.5,3.4,1.2,4.6,2.2
				c1.2,0.9,1.5,2.1,0.8,3.6c-3.7,7.9-7.3,16.1-10.9,24.8c-3.6,8.7-6.9,17.3-10,25.9c-3.1,8.6-5.9,16.7-8.5,24.6
				c-2.5,7.8-4.6,14.7-6.3,20.8c-1.6,6-2.8,10.9-3.5,14.5c-0.7,3.7-0.8,5.6-0.3,5.9c0.2,0.1,0.7-0.2,1.6-0.9
				c0.9-0.7,1.7-1.3,2.6-1.9c0.8-0.5,1.5-0.8,1.9-0.8c0.4,0,0.4,0.8-0.2,2.2c-0.6,1.8-1.4,3.7-2.5,5.8c-1,2.1-2.1,4-3.2,5.8
				c-1.1,1.8-2.3,3.3-3.5,4.6c-1.2,1.3-2.3,2.1-3.4,2.4c-1.2,0.4-2.5,0.4-4.1,0.1c-1.5-0.3-2.9-0.7-4.3-1.3
				c-1.3-0.6-2.5-1.4-3.5-2.3c-1-0.9-1.6-1.8-1.9-2.8c-0.6-1.8-0.5-5.1,0.3-9.9c0.7-4.7,1.9-10.3,3.5-16.7
				c1.6-6.4,3.6-13.3,5.9-20.9c2.3-7.5,4.8-15.2,7.5-22.9c2.7-7.7,5.4-15.2,8.1-22.5c2.8-7.3,5.4-13.8,7.9-19.6
				c2.5-5.8,4.7-10.5,6.7-14.3C266.2,198.3,267.7,196.1,268.8,195.5z"/>
		</g>
	</g>
</g>
</svg>
