<svg xmlns="http://www.w3.org/2000/svg" viewBox="200 0 560 560" enable-background="new 200 0 560 560"><path fill="#fff" d="M479.9 0C325.3 0 200 125.3 200 279.9 200 434.7 325.3 560 479.9 560 634.7 560 760 434.7 760 279.9 760 125.3 634.7 0 479.9 0zm143.5 413.1c0 5.8-4.5 10.5-10.3 10.5H346.8c-5.6 0-10.3-4.7-10.3-10.5V146.8c0-5.6 4.7-10.3 10.3-10.3h266.3c5.8 0 10.3 4.7 10.3 10.3v266.3zM422.6 279.9c0-31.6 25.6-57.3 57.3-57.3 31.8 0 57.5 25.6 57.5 57.3 0 31.8-25.8 57.5-57.5 57.5s-57.3-25.7-57.3-57.5zm114.8-114.7h57.5v57.5h-57.5v-57.5zm26 100.5h31.5v129H365.2v-129h31.3c-1.2 5.8-1.8 8.2-1.8 14.2 0 47.1 38.3 85.5 85.3 85.5 47.1 0 85.5-38.3 85.5-85.5-.1-6-1-8.5-2.1-14.2z"/></svg>