<svg xmlns="http://www.w3.org/2000/svg" viewBox="0 0 388.5 388.5" enable-background="new 0 0 388.5 388.5"><path d="M194.2 0C87 0 0 87 0 194.2c0 107.3 87 194.3 194.2 194.3 107.3 0 194.3-87 194.3-194.3C388.5 86.9 301.5 0 194.2 0zm119.4 237.7c-1.3 16.2-13.6 36.9-30.7 39.8-55 4.2-120.2 3.7-177.2 0-17.7-2.3-29.4-23.7-30.7-39.8-2.7-33.9-2.7-53.2 0-87.1 1.3-16.2 13.3-37.5 30.7-39.5 56.3-4.7 121.9-3.7 177.2 0 19.7.8 29.4 21.1 30.7 37.4 2.7 33.8 2.7 55.3 0 89.2zm0 0L170 242.8l72.8-48.6-72.8-48.5v97.1zm0 0" fill="#bb0000"/></svg>