<svg xmlns="http://www.w3.org/2000/svg" viewBox="0 0 96 96" enable-background="new 0 0 96 96"><path fill="#00aced" d="M48 0C21.488 0 0 21.49 0 48s21.488 48 48 48c26.51 0 48-21.49 48-48S74.51 0 48 0zm19.52 39.322c.02.406.028.814.028 1.224 0 12.493-9.51 26.9-26.898 26.9-5.338 0-10.307-1.567-14.49-4.25.738.09 1.49.133 2.254.133 4.43 0 8.506-1.517 11.742-4.05-4.137-.08-7.63-2.81-8.832-6.568.578.11 1.17.17 1.78.17.86 0 1.696-.116 2.49-.332-4.325-.87-7.585-4.69-7.585-9.27v-.12c1.27.71 2.73 1.135 4.28 1.185-2.54-1.697-4.208-4.59-4.208-7.87 0-1.733.465-3.356 1.28-4.753 4.66 5.72 11.628 9.483 19.485 9.878-.16-.69-.244-1.413-.244-2.154 0-5.22 4.232-9.453 9.453-9.453 2.72 0 5.176 1.148 6.9 2.985 2.154-.425 4.18-1.21 6.004-2.295-.706 2.207-2.204 4.06-4.155 5.23 1.91-.23 3.73-.736 5.43-1.488-1.27 1.894-2.87 3.56-4.72 4.892z"/></svg>