<?xml version="1.0" encoding="utf-8"?>
<!-- Generator: Adobe Illustrator 18.0.0, SVG Export Plug-In . SVG Version: 6.00 Build 0)  -->
<!DOCTYPE svg PUBLIC "-//W3C//DTD SVG 1.1//EN" "http://www.w3.org/Graphics/SVG/1.1/DTD/svg11.dtd">
<svg version="1.1" id="Layer_1" xmlns="http://www.w3.org/2000/svg" xmlns:xlink="http://www.w3.org/1999/xlink" x="0px" y="0px"
	 viewBox="0 0 273 293.2" enable-background="new 0 0 273 293.2" xml:space="preserve">
<g>
	<path fill="#3E332D" d="M240.2,159.4c0,0,14.4-69.2-3.9-91.2C217.9,46.1,218.7,130.8,240.2,159.4z"/>
	<path fill="#3E332D" d="M32,159.4c0,0-14.4-69.2,3.9-91.2C54.3,46.1,53.5,130.8,32,159.4z"/>
	<g>
		<path fill="#F2CDAC" d="M241.5,166.1L232.3,76c0-23-16.7-49.1-38.6-53c-10.1-2.2-31.8-8.3-57.1-8.3c-25.3,0-47,6.3-57.1,8.3
			c-21.8,4.3-38.6,30-38.6,53l-9.3,90.1C13.2,172.4,0,196.8,0,217.3v4.7c0,22.4,15.7,48.1,36.7,52.6c10.9,5.6,51.5,9.8,99.8,9.8
			c48.4,0,88.9-4.2,99.8-9.8c21-4.6,36.7-30.2,36.7-52.6v-4.7C273.1,196.8,259.9,172.4,241.5,166.1z"/>
	</g>
	<g>
		<g>
			<g>
				<path fill="#54453D" d="M78.4,135.1c1.9-0.4,3.8-0.6,5.7-0.6c1.2,0,2.4,0.1,3.6,0.2c1-1.1,1.7-2.6,1.7-4.3v-3.7
					c0-3.5-2.8-6.3-6.3-6.3h-0.3c-3.5,0-6.3,2.8-6.3,6.3v3.7C76.3,132.3,77.1,133.9,78.4,135.1z"/>
				<circle opacity="0.5" fill="#CAB8AE" cx="84.3" cy="125.2" r="2.2"/>
			</g>
		</g>
		<g>
			<g>
				<path fill="#54453D" d="M185.8,135.1c1.9-0.4,3.8-0.6,5.7-0.6c1.2,0,2.4,0.1,3.6,0.2c1-1.1,1.7-2.6,1.7-4.3v-3.7
					c0-3.5-2.8-6.3-6.3-6.3h-0.3c-3.5,0-6.3,2.8-6.3,6.3v3.7C183.7,132.3,184.5,133.9,185.8,135.1z"/>
				<path fill="#40332E" d="M185.8,135.1c0.9-0.2,1.8-0.3,2.7-0.4c-2-1.1-3.3-3.2-3.3-5.6v-3.7c0-1.4,0.5-2.7,1.2-3.7
					c-1.6,1.1-2.6,3-2.6,5.1v3.7C183.7,132.3,184.5,133.9,185.8,135.1z"/>
				<circle opacity="0.5" fill="#CAB8AE" cx="191.7" cy="125.2" r="2.2"/>
			</g>
		</g>
	</g>
	<g opacity="0.2">
		<path fill="#B69A81" d="M256.3,176.3c4.6,8.4,7.2,18,7.2,26.9v4.4c0,20.9-14.7,44.8-34.3,49.1c-10.2,5.2-48,9.1-93.1,9.1
			s-82.9-3.9-93.1-9.1c-19.6-4.3-34.3-28.2-34.3-49.1v-4.4c0-8.9,2.7-18.5,7.2-26.9c-10,10.6-16.4,26.7-16.4,41v4.7
			c0,22.4,15.7,48.1,36.7,52.6c10.9,5.6,51.5,9.8,99.8,9.8c48.4,0,88.9-4.2,99.8-9.8c21-4.6,36.7-30.2,36.7-52.6v-4.7
			C272.8,203.1,266.4,186.9,256.3,176.3z"/>
	</g>
	<g>
		<path fill="#54453D" d="M119.7,196.1h0.7c-3.8,0-34.7,1.3-33.9,9.5c0,0.1,0-1.7,0-1.6c11.6-3.8,29.5-6.9,32.6-6.9h-1.3
			L119.7,196.1z"/>
		<path fill="#54453D" d="M153.7,193l2,4.1h-0.8c0,0,19.7,2.4,32.5,6.3c0,0,0-0.1,0-0.1C188.1,195.3,158.4,193.2,153.7,193z"/>
	</g>
	<path fill="#1F1018" d="M135.7,109.7 M133.1,109.7c-0.5,0-1.1,0-1.6,0c-18.6-0.5-21.4-6.2-62.5-10.8c-41.1-4.6-68.5,7.7-68.5,7.7
		l-0.3,17.8c0,0,2.3-0.3,7-0.5c0.5,9.3,3.9,30.5,6.7,40c2.8,9.6,5.7,30,49.9,30c44.2,0,54.5-41.8,56.8-49.9
		c2.2-7.4,6.1-13.7,12.6-15.4c0.1,0,0.2,0,0.2-0.1c0.4-0.1,0.9-0.2,1.3-0.3c0.3,0,0.6-0.1,0.9-0.1c0.3,0,0.6,0,0.9,0.1
		c0.5,0.1,0.9,0.1,1.3,0.3c0.1,0,0.2,0,0.2,0.1c6.5,1.7,10.5,8,12.6,15.4c2.3,8,12.7,49.9,56.8,49.9c44.2,0,47-20.4,49.8-30
		c2.8-9.6,6.2-30.7,6.7-40c4.6,0.3,7,0.5,7,0.5l-0.3-17.8c0,0-27.4-12.4-68.5-7.7c-41.1,4.6-43.9,10.3-62.5,10.8c-0.6,0-1.1,0-1.6,0
		 M108.7,159.3c-10.3,19.1-30.5,28.7-49.9,27.9c-28.3-1.2-35.6-16-39.5-31.5c-3.9-15.5-3.1-24.8-3.6-32.5c0,0-1.3-12.1,13.2-15.5
		c14.5-3.4,49.9-5.4,72.1,3.1C112.3,114.8,122.1,132.9,108.7,159.3z M255.8,123.1c-0.5,7.7,0.3,17.1-3.6,32.5
		c-3.9,15.5-11.3,30.4-39.5,31.5c-19.4,0.8-39.5-8.8-49.9-27.9c-13.4-26.3-3.6-44.4,7.7-48.6c22.2-8.5,57.6-6.5,72.1-3.1
		C257.1,111,255.8,123.1,255.8,123.1z"/>
	<path fill="#3E332D" d="M261.2,257.4c-8.5,5-18.9,10.8-44.5,17.8c-27,7.4-33,7.9-49.8,8.3c-9.3,0.2-12.2-5.7-19.1-9.7
		c5.2-1.3,39.5-9.1,36.8-10.3c-4.4-2-38.1,0-46.7-0.1c-6.1-0.1-38.6-2.1-43.8-0.8c-4.4,1.1,26.3,9.7,32,11.2
		c-7.9,4.5-15.5,11.7-40,6.5c-30.3-6.5-10.8-1.3-30.3-6.5c-12.5-3.3-47.1-20.1-47.1-20.1s11.3,15.6,25.9,24.2
		c18.2,10.7,98.8,15.5,98.8,15.5s80.8-0.1,104.2-15.5C248.8,270.5,266.5,254.3,261.2,257.4z"/>
	<path fill="#FFFFFF" d="M135.5,287.9"/>
	<path opacity="0.13" fill="#3E332D" d="M41.1,70.5c2.1-1.5,24.8-34.4,89.6-9.9c0,0,48-14.1,61-7.3c0,0,31.1,9.9,40.8,25v-4
		l-42.9-36.4l-57,14.7L57.4,37.8L37.8,54.2L41.1,70.5z"/>
	<path fill="#3E332D" d="M241,92c-1.6-6.2-6.2-19.2-9.9-29.2c0.5-9.9,3.3-66-86.5-62.6c0,0-66.1,5.2-85.6,8.6
		c-19.5,3.4-29.3-4.1-29.3-4.1s-18.6,41.7,12.4,60c0,0,9.2-36.8,89.1-7c0,0,29.5-13.4,59.3-11.1C228.6,62.2,241,92,241,92z"/>
	<path fill="#54453D" d="M230.1,62.9c0,0,8.3-62.7-79.2-61.6c0,0-75.5,5.9-94.4,9.2c-18.6,3.2-25.9-3.7-25.9-3.7S9,40.5,152.8,16.2
		c0,0,0,0,0.1,0C154.4,16,207.7,0,230.1,62.9z"/>
</g>
</svg>
